<svg width="23" height="16" viewBox="0 0 23 16" fill="none" xmlns="http://www.w3.org/2000/svg">
<path d="M1.53418 6.797C0.981895 6.797 0.53418 7.24471 0.53418 7.797C0.53418 8.34928 0.981895 8.797 1.53418 8.797V6.797ZM22.2413 8.5041C22.6318 8.11358 22.6318 7.48041 22.2413 7.08989L15.8773 0.725929C15.4868 0.335405 14.8536 0.335405 14.4631 0.725929C14.0726 1.11645 14.0726 1.74962 14.4631 2.14014L20.12 7.797L14.4631 13.4539C14.0726 13.8444 14.0726 14.4775 14.4631 14.8681C14.8536 15.2586 15.4868 15.2586 15.8773 14.8681L22.2413 8.5041ZM1.53418 8.797H21.5342V6.797H1.53418V8.797Z" fill="#B2BAFF"/>
</svg>
