<svg width="23" height="16" viewBox="0 0 23 16" fill="none" xmlns="http://www.w3.org/2000/svg">
<path d="M1.50879 6.79688C0.956504 6.79688 0.508789 7.24459 0.508789 7.79688C0.508789 8.34916 0.956504 8.79688 1.50879 8.79688V6.79688ZM22.2159 8.50398C22.6064 8.11346 22.6064 7.48029 22.2159 7.08977L15.8519 0.725807C15.4614 0.335283 14.8282 0.335283 14.4377 0.725807C14.0472 1.11633 14.0472 1.7495 14.4377 2.14002L20.0946 7.79688L14.4377 13.4537C14.0472 13.8443 14.0472 14.4774 14.4377 14.8679C14.8282 15.2585 15.4614 15.2585 15.8519 14.8679L22.2159 8.50398ZM1.50879 8.79688H21.5088V6.79688H1.50879V8.79688Z" fill="#B2BAFF"/>
</svg>
