<svg width="23" height="16" viewBox="0 0 23 16" fill="none" xmlns="http://www.w3.org/2000/svg">
<path d="M1.50879 6.797C0.956504 6.797 0.508789 7.24471 0.508789 7.797C0.508789 8.34928 0.956504 8.797 1.50879 8.797V6.797ZM22.2159 8.5041C22.6064 8.11358 22.6064 7.48041 22.2159 7.08989L15.8519 0.725929C15.4614 0.335405 14.8282 0.335405 14.4377 0.725929C14.0472 1.11645 14.0472 1.74962 14.4377 2.14014L20.0946 7.797L14.4377 13.4539C14.0472 13.8444 14.0472 14.4775 14.4377 14.8681C14.8282 15.2586 15.4614 15.2586 15.8519 14.8681L22.2159 8.5041ZM1.50879 8.797H21.5088V6.797H1.50879V8.797Z" fill="#B2BAFF"/>
</svg>
